<svg width="20" height="20" viewBox="0 0 20 20" fill="none" xmlns="http://www.w3.org/2000/svg">
<path d="M1.25 0C0.559644 0 0 0.526724 0 1.17647C0 1.82622 0.559644 2.35294 1.25 2.35294H2.77403L3.15598 3.79087C3.15999 3.8075 3.16437 3.82399 3.16912 3.84034L4.86566 10.2273L3.74994 11.2774C2.17503 12.7597 3.29044 15.2941 5.51771 15.2941H16.2499C16.9403 15.2941 17.4999 14.7674 17.4999 14.1176C17.4999 13.4679 16.9403 12.9412 16.2499 12.9412L5.51771 12.9412L6.76771 11.7647H15C15.4735 11.7647 15.9063 11.5129 16.118 11.1144L19.868 4.05555C20.0618 3.69085 20.0411 3.25775 19.8133 2.9109C19.5856 2.56406 19.1832 2.35294 18.75 2.35294H5.35097L4.96268 0.891135C4.82356 0.367409 4.32358 0 3.75 0H1.25Z" fill="#0F172A"/>
<path d="M17.5 18.2353C17.5 19.2099 16.6605 20 15.625 20C14.5895 20 13.75 19.2099 13.75 18.2353C13.75 17.2607 14.5895 16.4706 15.625 16.4706C16.6605 16.4706 17.5 17.2607 17.5 18.2353Z" fill="#0F172A"/>
<path d="M5.625 20C6.66053 20 7.5 19.2099 7.5 18.2353C7.5 17.2607 6.66053 16.4706 5.625 16.4706C4.58947 16.4706 3.75 17.2607 3.75 18.2353C3.75 19.2099 4.58947 20 5.625 20Z" fill="#0F172A"/>
</svg>
