<svg width="20" height="20" viewBox="0 0 20 20" fill="none" xmlns="http://www.w3.org/2000/svg">
<g clip-path="url(#clip0_380_55)">
<path d="M9.0388 2.34928C9.31589 1.38375 10.6841 1.38375 10.9612 2.34928L12.2533 6.8515C12.3799 7.29263 12.7905 7.59096 13.2492 7.57505L17.9303 7.41263C18.9342 7.37779 19.357 8.67904 18.5243 9.24094L14.6418 11.861C14.2613 12.1178 14.1045 12.6005 14.2614 13.0318L15.8624 17.4336C16.2057 18.3776 15.0988 19.1818 14.3071 18.5636L10.6155 15.6806C10.2538 15.3982 9.74622 15.3982 9.38451 15.6806L5.69286 18.5636C4.90117 19.1818 3.79426 18.3776 4.13761 17.4336L5.73863 13.0318C5.8955 12.6005 5.73866 12.1178 5.35824 11.861L1.47565 9.24094C0.643006 8.67904 1.0658 7.37779 2.06971 7.41263L6.75085 7.57505C7.20951 7.59096 7.62012 7.29263 7.74672 6.8515L9.0388 2.34928Z" stroke="#F59E0B" stroke-width="2"/>
</g>
<defs>
<clipPath id="clip0_380_55">
<rect width="20" height="20" fill="white"/>
</clipPath>
</defs>
</svg>
